<mxfile host="app.diagrams.net" modified="2022-05-23T13:54:50.516Z" agent="5.0 (Macintosh; Intel Mac OS X 10_15_7) AppleWebKit/537.36 (KHTML, like Gecko) Chrome/101.0.4951.64 Safari/537.36" etag="ibKDTyTLCE1WpxAEKORH" version="17.5.0" type="github">
  <diagram id="zs0L-L9jBvMnJrOiJc7A" name="Page-1">
    <mxGraphModel dx="2505" dy="2007" grid="1" gridSize="10" guides="1" tooltips="1" connect="1" arrows="1" fold="1" page="1" pageScale="1" pageWidth="827" pageHeight="1169" math="0" shadow="0">
      <root>
        <mxCell id="0" />
        <mxCell id="1" parent="0" />
        <mxCell id="A1ooRMZGADmyAY4w1W7C-89" value="" style="rounded=0;whiteSpace=wrap;html=1;fillColor=#f5f5f5;strokeColor=#666666;fontColor=#333333;" parent="1" vertex="1">
          <mxGeometry x="-80" y="-90" width="1460" height="1080" as="geometry" />
        </mxCell>
        <mxCell id="A1ooRMZGADmyAY4w1W7C-90" value="" style="rounded=0;whiteSpace=wrap;html=1;fillColor=#dae8fc;strokeColor=#6c8ebf;" parent="1" vertex="1">
          <mxGeometry x="50" y="20" width="1210" height="550" as="geometry" />
        </mxCell>
        <mxCell id="A1ooRMZGADmyAY4w1W7C-88" value="" style="rounded=0;whiteSpace=wrap;html=1;fillColor=#dae8fc;strokeColor=#6c8ebf;" parent="1" vertex="1">
          <mxGeometry x="242.5" y="670" width="825" height="260" as="geometry" />
        </mxCell>
        <mxCell id="A1ooRMZGADmyAY4w1W7C-84" value="" style="rounded=0;whiteSpace=wrap;html=1;fillColor=#fff2cc;strokeColor=#d6b656;" parent="1" vertex="1">
          <mxGeometry x="1001" y="230" width="240" height="210" as="geometry" />
        </mxCell>
        <mxCell id="A1ooRMZGADmyAY4w1W7C-78" value="" style="rounded=0;whiteSpace=wrap;html=1;fillColor=#fff2cc;strokeColor=#d6b656;fontSize=17;" parent="1" vertex="1">
          <mxGeometry x="70" y="60" width="1170" height="70" as="geometry" />
        </mxCell>
        <mxCell id="A1ooRMZGADmyAY4w1W7C-76" value="" style="rounded=0;whiteSpace=wrap;html=1;fillColor=#fff2cc;strokeColor=#d6b656;" parent="1" vertex="1">
          <mxGeometry x="70" y="140" width="1170" height="70" as="geometry" />
        </mxCell>
        <mxCell id="A1ooRMZGADmyAY4w1W7C-75" value="" style="rounded=0;whiteSpace=wrap;html=1;fillColor=#fff2cc;strokeColor=#d6b656;fontSize=17;" parent="1" vertex="1">
          <mxGeometry x="70" y="465" width="1170" height="65" as="geometry" />
        </mxCell>
        <mxCell id="A1ooRMZGADmyAY4w1W7C-74" value="" style="rounded=0;whiteSpace=wrap;html=1;fillColor=#fff2cc;strokeColor=#d6b656;" parent="1" vertex="1">
          <mxGeometry x="730" y="230" width="200" height="210" as="geometry" />
        </mxCell>
        <mxCell id="A1ooRMZGADmyAY4w1W7C-73" value="" style="rounded=0;whiteSpace=wrap;html=1;fillColor=#fff2cc;strokeColor=#d6b656;" parent="1" vertex="1">
          <mxGeometry x="510" y="230" width="210" height="210" as="geometry" />
        </mxCell>
        <mxCell id="A1ooRMZGADmyAY4w1W7C-72" value="" style="rounded=0;whiteSpace=wrap;html=1;fillColor=#fff2cc;strokeColor=#d6b656;" parent="1" vertex="1">
          <mxGeometry x="290" y="230" width="210" height="210" as="geometry" />
        </mxCell>
        <mxCell id="A1ooRMZGADmyAY4w1W7C-71" value="" style="rounded=0;whiteSpace=wrap;html=1;fillColor=#fff2cc;strokeColor=#d6b656;" parent="1" vertex="1">
          <mxGeometry x="70" y="230" width="210" height="210" as="geometry" />
        </mxCell>
        <mxCell id="A1ooRMZGADmyAY4w1W7C-1" value="聚合流量" style="rounded=1;whiteSpace=wrap;html=1;fontSize=17;" parent="1" vertex="1">
          <mxGeometry x="80" y="275" width="90" height="45" as="geometry" />
        </mxCell>
        <mxCell id="A1ooRMZGADmyAY4w1W7C-5" value="全流量镜像" style="rounded=1;whiteSpace=wrap;html=1;fontSize=17;" parent="1" vertex="1">
          <mxGeometry x="180" y="275" width="90" height="45" as="geometry" />
        </mxCell>
        <mxCell id="A1ooRMZGADmyAY4w1W7C-6" value="交换机视图" style="rounded=1;whiteSpace=wrap;html=1;fontSize=17;" parent="1" vertex="1">
          <mxGeometry x="80" y="340" width="90" height="45" as="geometry" />
        </mxCell>
        <mxCell id="A1ooRMZGADmyAY4w1W7C-10" value="vip" style="rounded=1;whiteSpace=wrap;html=1;fontSize=17;" parent="1" vertex="1">
          <mxGeometry x="405" y="275" width="90" height="45" as="geometry" />
        </mxCell>
        <mxCell id="A1ooRMZGADmyAY4w1W7C-11" value="dgw" style="rounded=1;whiteSpace=wrap;html=1;fontSize=17;" parent="1" vertex="1">
          <mxGeometry x="300" y="340" width="90" height="45" as="geometry" />
        </mxCell>
        <mxCell id="A1ooRMZGADmyAY4w1W7C-12" value="dns" style="rounded=1;whiteSpace=wrap;html=1;fontSize=17;" parent="1" vertex="1">
          <mxGeometry x="300" y="275" width="90" height="45" as="geometry" />
        </mxCell>
        <mxCell id="A1ooRMZGADmyAY4w1W7C-13" value="nat" style="rounded=1;whiteSpace=wrap;html=1;fontSize=17;" parent="1" vertex="1">
          <mxGeometry x="400" y="340" width="90" height="45" as="geometry" />
        </mxCell>
        <mxCell id="A1ooRMZGADmyAY4w1W7C-14" value="运维信息" style="rounded=1;whiteSpace=wrap;html=1;fontSize=17;" parent="1" vertex="1">
          <mxGeometry x="180" y="340" width="90" height="45" as="geometry" />
        </mxCell>
        <mxCell id="A1ooRMZGADmyAY4w1W7C-15" value="监控报表" style="rounded=1;whiteSpace=wrap;html=1;fontSize=17;" parent="1" vertex="1">
          <mxGeometry x="465" y="75" width="80" height="40" as="geometry" />
        </mxCell>
        <mxCell id="A1ooRMZGADmyAY4w1W7C-16" value="监控大盘" style="rounded=1;whiteSpace=wrap;html=1;fontSize=17;" parent="1" vertex="1">
          <mxGeometry x="250" y="75" width="80" height="40" as="geometry" />
        </mxCell>
        <mxCell id="A1ooRMZGADmyAY4w1W7C-18" value="机房监控图" style="rounded=1;whiteSpace=wrap;html=1;fontSize=17;" parent="1" vertex="1">
          <mxGeometry x="737" y="272.5" width="90" height="45" as="geometry" />
        </mxCell>
        <mxCell id="A1ooRMZGADmyAY4w1W7C-19" value="机架监控" style="rounded=1;whiteSpace=wrap;html=1;fontSize=17;" parent="1" vertex="1">
          <mxGeometry x="833.33" y="275" width="90" height="45" as="geometry" />
        </mxCell>
        <mxCell id="A1ooRMZGADmyAY4w1W7C-20" value="服务器监控" style="rounded=1;whiteSpace=wrap;html=1;fontSize=17;" parent="1" vertex="1">
          <mxGeometry x="737" y="340" width="90" height="45" as="geometry" />
        </mxCell>
        <mxCell id="A1ooRMZGADmyAY4w1W7C-23" value="报警组" style="rounded=1;whiteSpace=wrap;html=1;fontSize=17;" parent="1" vertex="1">
          <mxGeometry x="1011" y="235" width="90" height="45" as="geometry" />
        </mxCell>
        <mxCell id="A1ooRMZGADmyAY4w1W7C-24" value="报警屏蔽" style="rounded=1;whiteSpace=wrap;html=1;fontSize=17;" parent="1" vertex="1">
          <mxGeometry x="1011" y="315" width="90" height="45" as="geometry" />
        </mxCell>
        <mxCell id="A1ooRMZGADmyAY4w1W7C-26" value="ES" style="rounded=1;whiteSpace=wrap;html=1;fontSize=17;" parent="1" vertex="1">
          <mxGeometry x="400" y="480" width="80" height="40" as="geometry" />
        </mxCell>
        <mxCell id="A1ooRMZGADmyAY4w1W7C-28" value="mysql" style="rounded=1;whiteSpace=wrap;html=1;fontSize=17;" parent="1" vertex="1">
          <mxGeometry x="120" y="480" width="80" height="40" as="geometry" />
        </mxCell>
        <mxCell id="A1ooRMZGADmyAY4w1W7C-29" value="gift" style="rounded=1;whiteSpace=wrap;html=1;fontSize=17;" parent="1" vertex="1">
          <mxGeometry x="540" y="480" width="80" height="40" as="geometry" />
        </mxCell>
        <mxCell id="A1ooRMZGADmyAY4w1W7C-30" value="redis" style="rounded=1;whiteSpace=wrap;html=1;fontSize=17;" parent="1" vertex="1">
          <mxGeometry x="680" y="480" width="80" height="40" as="geometry" />
        </mxCell>
        <mxCell id="A1ooRMZGADmyAY4w1W7C-31" value="druid" style="rounded=1;whiteSpace=wrap;html=1;fontSize=17;" parent="1" vertex="1">
          <mxGeometry x="265" y="480" width="80" height="40" as="geometry" />
        </mxCell>
        <mxCell id="A1ooRMZGADmyAY4w1W7C-34" value="xxl-job" style="rounded=1;whiteSpace=wrap;html=1;fontSize=17;" parent="1" vertex="1">
          <mxGeometry x="833.33" y="480" width="80" height="40" as="geometry" />
        </mxCell>
        <mxCell id="A1ooRMZGADmyAY4w1W7C-35" value="monitor" style="rounded=1;whiteSpace=wrap;html=1;fontSize=17;" parent="1" vertex="1">
          <mxGeometry x="1100" y="480" width="80" height="40" as="geometry" />
        </mxCell>
        <mxCell id="A1ooRMZGADmyAY4w1W7C-36" value="cmdb" style="rounded=1;whiteSpace=wrap;html=1;fontSize=17;" parent="1" vertex="1">
          <mxGeometry x="970" y="480" width="80" height="40" as="geometry" />
        </mxCell>
        <mxCell id="A1ooRMZGADmyAY4w1W7C-37" value="pingmesh" style="rounded=1;whiteSpace=wrap;html=1;fontSize=17;" parent="1" vertex="1">
          <mxGeometry x="520" y="275" width="90" height="45" as="geometry" />
        </mxCell>
        <mxCell id="A1ooRMZGADmyAY4w1W7C-38" value="acl监控" style="rounded=1;whiteSpace=wrap;html=1;fontSize=17;" parent="1" vertex="1">
          <mxGeometry x="620" y="275" width="90" height="45" as="geometry" />
        </mxCell>
        <mxCell id="A1ooRMZGADmyAY4w1W7C-39" value="ddos攻击" style="rounded=1;whiteSpace=wrap;html=1;fontSize=17;" parent="1" vertex="1">
          <mxGeometry x="520" y="340" width="90" height="45" as="geometry" />
        </mxCell>
        <mxCell id="A1ooRMZGADmyAY4w1W7C-40" value="飞鸽" style="rounded=1;whiteSpace=wrap;html=1;fontSize=17;" parent="1" vertex="1">
          <mxGeometry x="1141" y="315" width="90" height="45" as="geometry" />
        </mxCell>
        <mxCell id="A1ooRMZGADmyAY4w1W7C-41" value="WEB" style="rounded=1;whiteSpace=wrap;html=1;fontSize=17;" parent="1" vertex="1">
          <mxGeometry x="790" y="75" width="80" height="40" as="geometry" />
        </mxCell>
        <mxCell id="A1ooRMZGADmyAY4w1W7C-42" value="OpenApi" style="rounded=1;whiteSpace=wrap;html=1;fontSize=17;" parent="1" vertex="1">
          <mxGeometry x="1040" y="75" width="80" height="40" as="geometry" />
        </mxCell>
        <mxCell id="A1ooRMZGADmyAY4w1W7C-43" value="报警策略" style="rounded=1;whiteSpace=wrap;html=1;fontSize=17;" parent="1" vertex="1">
          <mxGeometry x="1011" y="385" width="90" height="45" as="geometry" />
        </mxCell>
        <mxCell id="A1ooRMZGADmyAY4w1W7C-46" value="" style="endArrow=classic;html=1;rounded=0;exitX=1;exitY=0.5;exitDx=0;exitDy=0;entryX=0;entryY=0.5;entryDx=0;entryDy=0;fontSize=16;" parent="1" source="A1ooRMZGADmyAY4w1W7C-24" target="A1ooRMZGADmyAY4w1W7C-40" edge="1">
          <mxGeometry width="50" height="50" relative="1" as="geometry">
            <mxPoint x="1130" y="325" as="sourcePoint" />
            <mxPoint x="1180" y="275" as="targetPoint" />
          </mxGeometry>
        </mxCell>
        <mxCell id="A1ooRMZGADmyAY4w1W7C-49" value="" style="endArrow=none;html=1;rounded=0;entryX=1;entryY=0.5;entryDx=0;entryDy=0;fontSize=16;" parent="1" target="A1ooRMZGADmyAY4w1W7C-23" edge="1">
          <mxGeometry width="50" height="50" relative="1" as="geometry">
            <mxPoint x="1120" y="340" as="sourcePoint" />
            <mxPoint x="1100" y="355" as="targetPoint" />
            <Array as="points">
              <mxPoint x="1120" y="258" />
            </Array>
          </mxGeometry>
        </mxCell>
        <mxCell id="A1ooRMZGADmyAY4w1W7C-51" value="sso" style="rounded=1;whiteSpace=wrap;html=1;fontSize=17;" parent="1" vertex="1">
          <mxGeometry x="410" y="155" width="80" height="40" as="geometry" />
        </mxCell>
        <mxCell id="A1ooRMZGADmyAY4w1W7C-53" value="白名单" style="rounded=1;whiteSpace=wrap;html=1;fontSize=17;" parent="1" vertex="1">
          <mxGeometry x="780" y="155" width="80" height="40" as="geometry" />
        </mxCell>
        <mxCell id="A1ooRMZGADmyAY4w1W7C-54" value="消息队列" style="rounded=1;whiteSpace=wrap;html=1;fontSize=17;" parent="1" vertex="1">
          <mxGeometry x="597.5" y="700" width="120" height="60" as="geometry" />
        </mxCell>
        <mxCell id="A1ooRMZGADmyAY4w1W7C-55" value="agent" style="rounded=1;whiteSpace=wrap;html=1;fontSize=17;" parent="1" vertex="1">
          <mxGeometry x="417.5" y="840" width="120" height="60" as="geometry" />
        </mxCell>
        <mxCell id="A1ooRMZGADmyAY4w1W7C-56" value="网络安全" style="rounded=1;whiteSpace=wrap;html=1;fontSize=17;" parent="1" vertex="1">
          <mxGeometry x="597.5" y="840" width="120" height="60" as="geometry" />
        </mxCell>
        <mxCell id="A1ooRMZGADmyAY4w1W7C-57" value="网络产品" style="rounded=1;whiteSpace=wrap;html=1;fontSize=17;" parent="1" vertex="1">
          <mxGeometry x="782.5" y="830" width="120" height="60" as="geometry" />
        </mxCell>
        <mxCell id="A1ooRMZGADmyAY4w1W7C-60" value="" style="endArrow=classic;html=1;rounded=0;entryX=0.5;entryY=1;entryDx=0;entryDy=0;exitX=0.5;exitY=0;exitDx=0;exitDy=0;fontSize=17;" parent="1" source="A1ooRMZGADmyAY4w1W7C-56" target="A1ooRMZGADmyAY4w1W7C-54" edge="1">
          <mxGeometry width="50" height="50" relative="1" as="geometry">
            <mxPoint x="667.5" y="810" as="sourcePoint" />
            <mxPoint x="717.5" y="760" as="targetPoint" />
          </mxGeometry>
        </mxCell>
        <mxCell id="A1ooRMZGADmyAY4w1W7C-62" value="" style="endArrow=none;html=1;rounded=0;exitX=0.5;exitY=0;exitDx=0;exitDy=0;fontSize=17;" parent="1" source="A1ooRMZGADmyAY4w1W7C-55" edge="1">
          <mxGeometry width="50" height="50" relative="1" as="geometry">
            <mxPoint x="477.5" y="780" as="sourcePoint" />
            <mxPoint x="697.5" y="790" as="targetPoint" />
            <Array as="points">
              <mxPoint x="477.5" y="790" />
            </Array>
          </mxGeometry>
        </mxCell>
        <mxCell id="A1ooRMZGADmyAY4w1W7C-64" value="" style="endArrow=none;html=1;rounded=0;entryX=0.5;entryY=0;entryDx=0;entryDy=0;fontSize=17;" parent="1" target="A1ooRMZGADmyAY4w1W7C-57" edge="1">
          <mxGeometry width="50" height="50" relative="1" as="geometry">
            <mxPoint x="697.5" y="790" as="sourcePoint" />
            <mxPoint x="927.5" y="730" as="targetPoint" />
            <Array as="points">
              <mxPoint x="842.5" y="790" />
            </Array>
          </mxGeometry>
        </mxCell>
        <mxCell id="A1ooRMZGADmyAY4w1W7C-87" value="" style="html=1;shadow=0;dashed=0;align=center;verticalAlign=middle;shape=mxgraph.arrows2.arrow;dy=0;dx=30;notch=19.71;fillColor=#ffe6cc;strokeColor=#d79b00;fontSize=16;" parent="1" vertex="1">
          <mxGeometry x="940" y="330" width="55.33" height="40" as="geometry" />
        </mxCell>
        <mxCell id="A1ooRMZGADmyAY4w1W7C-91" value="" style="html=1;shadow=0;dashed=0;align=center;verticalAlign=middle;shape=mxgraph.arrows2.arrow;dy=0;dx=30;notch=30;direction=north;fillColor=#ffe6cc;strokeColor=#d79b00;" parent="1" vertex="1">
          <mxGeometry x="631" y="580" width="48" height="80" as="geometry" />
        </mxCell>
        <mxCell id="A1ooRMZGADmyAY4w1W7C-92" value="&lt;font style=&quot;font-size: 16px&quot;&gt;网络运维&lt;/font&gt;" style="text;html=1;resizable=0;autosize=1;align=center;verticalAlign=middle;points=[];fillColor=none;strokeColor=none;rounded=0;" parent="1" vertex="1">
          <mxGeometry x="125" y="405" width="80" height="20" as="geometry" />
        </mxCell>
        <mxCell id="A1ooRMZGADmyAY4w1W7C-93" value="&lt;font style=&quot;font-size: 16px&quot;&gt;网络产品&lt;/font&gt;" style="text;html=1;resizable=0;autosize=1;align=center;verticalAlign=middle;points=[];fillColor=none;strokeColor=none;rounded=0;" parent="1" vertex="1">
          <mxGeometry x="355" y="405" width="80" height="20" as="geometry" />
        </mxCell>
        <mxCell id="A1ooRMZGADmyAY4w1W7C-94" value="&lt;font style=&quot;font-size: 16px&quot;&gt;网络安全&lt;/font&gt;" style="text;html=1;resizable=0;autosize=1;align=center;verticalAlign=middle;points=[];fillColor=none;strokeColor=none;rounded=0;" parent="1" vertex="1">
          <mxGeometry x="572.5" y="405" width="80" height="20" as="geometry" />
        </mxCell>
        <mxCell id="A1ooRMZGADmyAY4w1W7C-95" value="&lt;span style=&quot;font-size: 16px&quot;&gt;机房监控&lt;/span&gt;" style="text;html=1;resizable=0;autosize=1;align=center;verticalAlign=middle;points=[];fillColor=none;strokeColor=none;rounded=0;" parent="1" vertex="1">
          <mxGeometry x="770" y="405" width="80" height="20" as="geometry" />
        </mxCell>
        <mxCell id="pBj1Rodf64zJ7dfl-ZAN-6" value="" style="endArrow=none;html=1;rounded=0;exitX=1;exitY=0.5;exitDx=0;exitDy=0;" edge="1" parent="1" source="A1ooRMZGADmyAY4w1W7C-43">
          <mxGeometry width="50" height="50" relative="1" as="geometry">
            <mxPoint x="1101" y="407.5" as="sourcePoint" />
            <mxPoint x="1120" y="340" as="targetPoint" />
            <Array as="points">
              <mxPoint x="1120" y="408" />
            </Array>
          </mxGeometry>
        </mxCell>
      </root>
    </mxGraphModel>
  </diagram>
</mxfile>
